<?xml version="1.0" standalone="no"?>
<!DOCTYPE svg PUBLIC "-//W3C//DTD SVG 1.1//EN" "http://www.w3.org/Graphics/SVG/1.1/DTD/svg11.dtd" >
<svg xmlns="http://www.w3.org/2000/svg">
<metadata>Generated by IcoMoon</metadata>
<defs>
<font id="icomoon" horiz-adv-x="1024">
<font-face units-per-em="1024" ascent="960" descent="-64" />
<missing-glyph horiz-adv-x="1024" />
<glyph unicode="&#x20;" d="" horiz-adv-x="512" />
<glyph unicode="&#xe600;" d="M743.227 654.42l-245.314-271.262-245.342 271.262-64.023-70.746 309.35-342.102 309.35 342.102z" />
<glyph unicode="&#xe601;" d="M775.602 206.236l-254.018 254.018 238.479 238.492-34.001 29.528-236.243-236.255-224.612 224.612-35.705-35.77 224.586-224.575-238.44-238.449 31.785-31.744 238.418 238.43 256.283-256.27z" />
<glyph unicode="&#xe602;" d="M127.046 737.403v-576.758h709.855v576.758h-709.855zM808.524 189.067h-653.079v377.977h653.079v-377.977zM808.524 595.423h-653.079v113.578h653.079v-113.578zM751.725 666.413h-440.109v-28.402h440.107v28.402zM226.437 666.413h-28.402v-28.402h28.402v28.402zM283.216 666.413h-28.402v-28.402h28.402v28.402z" />
<glyph unicode="&#xe603;" d="M613.757 463.935l-122.681 122.698-122.681-122.698 17.068-17.068 93.544 93.561v-382.112h24.14v382.112l93.544-93.561 17.066 17.068zM249.67 737.683v-458.666h181.053v24.14h-156.912v410.386h434.526v-410.386h-156.914v-24.14h181.053v458.666h-482.808z" />
<glyph unicode="&#xe604;" d="M720.499 431.941c0-121.728-96.856-220.75-215.933-220.75-119.047 0-215.933 99.022-215.933 220.75 0 121.43 96.422 220.262 215.121 220.724v-100.376l186.488 110.388-186.488 110.361v-100.293c-129.738-0.46-234.742-108.061-234.742-240.802 0-132.985 105.435-240.802 235.553-240.802 130.089 0 235.553 107.817 235.553 240.802h-19.62zM523.374 738.238l127.681-75.559-127.681-75.586v151.145z" />
<glyph unicode="&#xe605;" d="M684.64 377.295l81.498-86.274h-146.844l-303.462 342.061h-124.658v-26.313h113.889l303.462-342.018h157.612l-81.281-86.059 17.584-18.584 111.284 117.799-111.499 118.014-17.586-18.627zM305.064 291.021h-113.889v-26.27h124.658l120.404 135.686-18.149 18.020-113.023-127.437zM619.338 606.767h146.801l-81.281-86.014 17.584-18.629 111.284 117.799-111.499 118.016-17.586-18.584 81.498-86.274h-157.612l-120.924-136.817 18.147-17.975 113.588 128.477z" />
<glyph unicode="&#xe606;" d="M837.902 679.344h-681.57v-461.509h710.439v461.509h-28.869zM809.472 650.478l-274.477-278.565c-12.524-12.712-34.363-12.712-46.873 0l-274.51 278.565h595.859zM184.746 638.986l184.525-187.234-184.525-187.296v374.53zM207.43 246.671l181.959 184.666 78.635-79.809c11.616-11.805 27.097-18.317 43.536-18.317s31.92 6.515 43.522 18.317l78.649 79.809 181.942-184.666h-608.244zM838.371 264.456l-184.51 187.296 184.51 187.296v-374.591z" />
<glyph unicode="&#xe607;" d="M531.288 667.386l-21.213-178.792-2.521-21.461h105.052l-175.399-238.508 21.203 178.782 2.533 21.461h-105.042l175.387 238.518zM557.849 734.982l-239.17-325.249h121.461l-29.481-248.715 239.153 325.247h-121.459l29.495 248.717z" />
<glyph unicode="&#xe608;" d="M486.531 241.066l-136.296 150.694-35.566-39.299 171.854-190.048 171.854 190.048-35.566 39.299-136.28-150.694zM486.531 656.996l136.28-150.708 35.566 39.322-171.854 190.009-171.854-190.007 35.566-39.322 136.296 150.706z" />
<glyph unicode="&#xe609;" d="M832.059 286.691v446.679h-654.672v-446.677h314.749v-99.244h-88.13v-24.818h201.437v24.818h-88.127v99.244h314.743zM202.568 708.551h604.312v-397.040h-604.312v397.040z" />
<glyph unicode="&#xe60a;" d="M245.031 288.811c-36.178 0-65.522-28.545-65.522-63.685 0-35.181 29.344-63.685 65.522-63.685 36.139 0 65.485 28.504 65.485 63.685-0.002 35.142-29.346 63.685-65.485 63.685zM769.008 288.811c-36.178 0-65.52-28.545-65.52-63.685 0-35.181 29.342-63.685 65.52-63.685 36.139 0 65.485 28.504 65.485 63.685 0 35.142-29.344 63.685-65.485 63.685zM507.001 607.189c36.18 0 65.522 28.522 65.522 63.683s-29.342 63.683-65.522 63.683c-36.178 0-65.483-28.522-65.483-63.683s29.305-63.683 65.483-63.683zM740.307 366.928l-122.089 211.517-17.029-8.096 122.089-211.499 17.029 8.077zM384.631 563.235l-15.149 7.537-108.538-196.768 15.149-7.514 108.538 196.745zM374.716 231.764l222.032-34.66 1.88 16.83-221.993 34.619-1.919-16.79z" />
<glyph unicode="&#xe60b;" d="M692.406 601.221l19.864 19.137 20.115-19.401 24.914 23.996-56.859 54.813-24.914-23.996 20.142-19.413-19.866-19.137c-44.024 38.902-101.462 63.853-164.85 67.809v45.859h-35.209v-45.859c-140.915-8.753-252.422-121.616-252.422-259.656 0-143.753 120.9-260.258 270.029-260.258s270.029 116.505 270.029 260.258c-0.002 67.795-26.925 129.524-70.973 175.847zM493.351 187.742c-135.942 0-246.546 106.611-246.546 237.629 0 131.033 110.604 237.617 246.546 237.617 135.944 0 246.546-106.584 246.546-237.617-0.002-131.019-110.604-237.629-246.546-237.629zM505.104 457.243v149.178h-23.509v-149.178c-13.636-4.696-23.456-17.115-23.456-31.871 0-14.768 9.82-27.197 23.456-31.871v-47.34h23.509v47.342c13.636 4.671 23.456 17.103 23.456 31.871 0 14.752-9.82 27.173-23.456 31.869z" />
<glyph unicode="&#xe60c;" d="M821.248 730.608l-347.769-565.23-294.375 265.386 46.383 41.857 215.247-193.989 294.431 452.096 86.084-0.121z" />
<glyph unicode="&#xe60d;" d="M157.030 421.599h610.349l-160.659-171.213 34.773-37.024 220.027 234.433-220.484 234.844-34.775-37.022 161.167-171.674h-607.095z" />
<glyph unicode="&#xe60e;" d="M895.744 371.468v153.063h-85.281c-6.849 28.692-17.631 55.747-32.033 80.673l59.359 59.283-108.222 108.243-58.079-58.046c-25.184 15.266-52.673 26.966-81.92 34.501v81.535h-153.088v-81.535c-29.247-7.533-56.736-19.235-81.92-34.501l-58.079 58.046-108.225-108.243 59.359-59.283c-14.399-24.926-25.184-51.98-32.033-80.673h-85.279v-153.063h87.871c7.584-27.429 18.848-53.129 33.217-76.878l-63.136-63.078 108.225-108.272 64.385 64.399c23.489-13.513 48.767-23.804 75.616-30.704v-91.656h153.088v91.656c26.847 6.9 52.128 17.193 75.616 30.704l64.385-64.399 108.225 108.272-63.136 63.078c14.369 23.749 25.633 49.451 33.217 76.878h87.867zM513.024 340.82c-59.232 0-107.168 47.956-107.168 107.18 0 59.195 47.935 107.18 107.168 107.18s107.168-47.985 107.168-107.18c0-59.224-47.935-107.18-107.168-107.18z" />
<glyph unicode="&#xe60f;" d="M735.359 530.381l-214.721 213.492h-227.455v-603.073h442.253v389.542l-0.078 0.039zM520.638 708.34l166.416-165.493h-166.416v165.493zM318.468 165.929v552.817h176.912v-201.023h214.772v-351.793h-391.684z" />
<glyph unicode="&#xe610;" d="M669.526 167.85l63.863-0.426v389.542l-0.076 0.039-214.723 213.492h-227.455l2.241-64.063c0.051 0.121 1.419 0.201 1.473 0.319 0.348 2.802 4.198-1.855 5.12 0.981 0.070 0.227 0.143 0.455 0.215 0.682 0.16 0.469 0.315 0.938 0.489 1.409 0.127 0.352 0.231 0.709 0.369 1.061l0.047-0.020c0.322 0.819-0.334-3.281 0.033-2.449 3.006 6.853 2.726 6.584 7.361 2.241 1.614-0.145 4.968-1.784 6.529-2.687l1.411 37.403h176.912v-65.606l26.008-22.362-0.75 77.562 166.416-165.493h-75.385c1.43-2.832 4.901-2.146 4.17-4.958 5.439 0.455 5.951-2.671 5.951-7.553 0-2.154 9.423-11.084 8.378-12.614h79.983v-351.795h-38.578zM692.351 516.045l-214.721 213.492h-227.455v-603.073h442.253v389.542l-0.078 0.039zM503.976 667.806l140.071-139.295h-166.416v165.493l26.345-26.198zM275.46 151.593v552.817h176.912v-201.023h214.772v-351.793h-391.684z" />
<glyph unicode="&#xe611;" d="M866.97 474.401h-610.349l160.659 171.213-34.773 37.024-220.027-234.433 220.484-234.844 34.775 37.022-161.167 171.674h607.095z" />
<glyph unicode="&#xe612;" d="M718.42 679.227l-271.262-245.314 271.262-245.342-70.746-64.023-342.102 309.35 342.102 309.35z" />
<glyph unicode="&#xe613;" d="M305.58 679.227l271.262-245.314-271.262-245.342 70.746-64.023 342.102 309.35-342.102 309.35z" />
<glyph unicode="&#xe614;" d="M743.227 241.58l-245.314 271.262-245.342-271.262-64.023 70.746 309.35 342.102 309.35-342.102z" />
</font>
</defs>
</svg>
